<?xml version="1.0" standalone="no"?>
<!DOCTYPE svg PUBLIC "-//W3C//DTD SVG 20010904//EN"
 "http://www.w3.org/TR/2001/REC-SVG-20010904/DTD/svg10.dtd">
<svg version="1.0" xmlns="http://www.w3.org/2000/svg"
 width="259.000000pt" height="300.000000pt" viewBox="0 0 259.000000 300.000000"
 preserveAspectRatio="xMidYMid meet">

<g transform="translate(0.000000,300.000000) scale(0.100000,-0.100000)"
fill="#000000" stroke="none">
<path d="M7 2994 c-4 -4 -7 -141 -7 -305 l0 -298 713 -4 c632 -3 719 -5 776
-20 136 -37 239 -113 283 -211 20 -44 23 -67 23 -166 0 -96 -4 -123 -22 -161
-42 -93 -114 -149 -236 -187 -45 -14 -154 -17 -792 -22 l-740 -5 0 -310 0
-310 710 -5 c798 -6 759 -2 850 -82 55 -49 92 -117 110 -207 19 -90 37 -396
33 -561 l-3 -135 399 -3 399 -2 -6 237 c-12 438 -32 593 -96 726 -70 145 -209
251 -391 298 l-45 11 75 19 c212 53 390 202 476 396 14 31 35 95 46 142 28
111 29 325 3 446 -83 390 -358 622 -830 702 -86 14 -211 17 -910 20 -446 3
-814 1 -818 -3z"/>
<path d="M2 238 l3 -233 503 0 504 0 -1 175 c-2 205 -10 231 -81 268 -44 22
-48 22 -487 22 l-443 0 2 -232z"/>
</g>
</svg>
